# xmcd
#
# Track frame offsets: 
#        150
#        21110
#        35817
#        58082
#        80819
#        102583
#        120244
#        143390
#        165360
#        185529
#        202532
#        223439
#        239022
#        255133
#        276153
#        296165
#
# Disc length: 4219 seconds
#
# Revision: 0
# Processed by: cddbd v1.5.2PL0 Copyright (c) Steve Scherf et al.
# Submitted via: ExactAudioCopy v1.0b6
#
DISCID=e8107910
DTITLE=長山洋子 - 長山洋子 30周年記念 演歌シングルコレクション Disc 3 VICL-64060-2
DYEAR=1900
DGENRE=JPop
TTITLE0=おんな炭坑節 (シングル・バージョン) 
TTITLE1=嘘だといって (ニュー・バージョン)
TTITLE2=洋子の…海 
TTITLE3=洋子の…名残月 
TTITLE4=絆
TTITLE5=松江舟唄
TTITLE6=洋子の…新宿追分
TTITLE7=悦楽の園
TTITLE8=望郷ひとり泣き (シングル・バージョン) 
TTITLE9=遠い街
TTITLE10=瀬戸の晩夏
TTITLE11=おけさ恋唄 
TTITLE12=博多山笠女節 
TTITLE13=木曽の翌檜
TTITLE14=ほっとしてください
TTITLE15=もう一度…子守歌 
EXTD=
EXTT0=
EXTT1=
EXTT2=
EXTT3=
EXTT4=
EXTT5=
EXTT6=
EXTT7=
EXTT8=
EXTT9=
EXTT10=
EXTT11=
EXTT12=
EXTT13=
EXTT14=
EXTT15=
PLAYORDER=
